# xmcd
#
# Track frame offsets:
# 150
# 33536
# 55652
# 72878
# 95652
# 116058
# 133844
# 150508
# 171743
# 192963
# 217059
# 233216
# 252500
# 271941
#
# Disc length: 4304 seconds
#
#
# Revision: 0
# Processed by: cddbd v1.5.2PL0 Copyright (c) Steve Scherf et al.
# Submitted via: FreeRIP 2.945 
#
DISCID=d610ce0e
DTITLE=BB and THE STINGERS - 1ST BLUES BAND ON VENUS
DYEAR=1998
DGENRE=Rock and Roll
TTITLE0=1ST BLUES BAND ON VENUS
TTITLE1=DANCIN ON MY GRAVE
TTITLE2=DUE FOR A BREAK
TTITLE3=LOVE TURNS IT'S BACK
TTITLE4=MAKIN THE CHANGE
TTITLE5=FIND THAT WOMAN
TTITLE6=I AIN'T PERFECT (BUT I'M CLOSE)
TTITLE7=HELPLESS
TTITLE8=FLOWER
TTITLE9=SOLD YOUR BLOOD
TTITLE10=ASSHOLE BEHIND THE DESK
TTITLE11=LIVE THE LIFE I LOVE
TTITLE12=BOTH SIDES OF THE FENCE
TTITLE13=SLOW BURN
EXTD=LOVE YOU BERNIE!
EXTT0=
EXTT1=
EXTT2=
EXTT3=
EXTT4=
EXTT5=
EXTT6=
EXTT7=
EXTT8=
EXTT9=
EXTT10=
EXTT11=
EXTT12=
EXTT13=
PLAYORDER=
